<svg xmlns="http://www.w3.org/2000/svg" width="192" height="192" viewBox="0 0 192 192">
  <path d="M48 118 C32 106 28 82 46 68 C64 54 88 58 104 44 C122 32 144 34 156 52 C168 70 160 94 140 108 C120 122 96 134 74 138 C60 140 48 134 48 118Z"
        fill="#e23c3c" stroke="#111" stroke-width="3" stroke-linejoin="round"/>
  <rect x="112" y="46" width="10" height="74" rx="2"
        fill="#b87a3b" stroke="#111" stroke-width="2.5"/>
  <path d="M122 38 C134 36 148 42 150 52 C152 62 144 70 132 70 C124 70 118 64 122 38Z"
        fill="#d5a66a" stroke="#111" stroke-width="2.5"/>
</svg>